<?xml version="1.0" encoding="UTF-8" standalone="no"?>
<!-- Created with Inkscape (http://www.inkscape.org/) -->

<svg
   xmlns:dc="http://purl.org/dc/elements/1.1/"
   xmlns:cc="http://creativecommons.org/ns#"
   xmlns:rdf="http://www.w3.org/1999/02/22-rdf-syntax-ns#"
   xmlns:svg="http://www.w3.org/2000/svg"
   xmlns="http://www.w3.org/2000/svg"
   xmlns:sodipodi="http://sodipodi.sourceforge.net/DTD/sodipodi-0.dtd"
   xmlns:inkscape="http://www.inkscape.org/namespaces/inkscape"
   width="10.687434mm"
   height="15.826251mm"
   viewBox="0 0 10.687434 15.826251"
   id="svg2"
   version="1.1"
   inkscape:version="0.91+devel r"
   sodipodi:docname="dsrlogo.svg">
  <defs
     id="defs4" />
  <sodipodi:namedview
     id="base"
     pagecolor="#ffffff"
     bordercolor="#666666"
     borderopacity="1.0"
     inkscape:pageopacity="0.0"
     inkscape:pageshadow="2"
     inkscape:zoom="2.8284271"
     inkscape:cx="81.009552"
     inkscape:cy="7.6166811"
     inkscape:document-units="mm"
     inkscape:current-layer="layer1"
     showgrid="false"
     inkscape:window-width="1855"
     inkscape:window-height="1176"
     inkscape:window-x="65"
     inkscape:window-y="24"
     inkscape:window-maximized="1"
     fit-margin-top="0"
     fit-margin-left="0"
     fit-margin-right="0"
     fit-margin-bottom="0" />
  <metadata
     id="metadata7">
    <rdf:RDF>
      <cc:Work
         rdf:about="">
        <dc:format>image/svg+xml</dc:format>
        <dc:type
           rdf:resource="http://purl.org/dc/dcmitype/StillImage" />
        <dc:title></dc:title>
      </cc:Work>
    </rdf:RDF>
  </metadata>
  <g
     inkscape:label="Layer 1"
     inkscape:groupmode="layer"
     id="layer1"
     transform="translate(-103.61158,-169.80654)">
    <g
       id="g4231"
       transform="translate(-41.253053,3.4611405)">
      <path
         sodipodi:nodetypes="cccc"
         inkscape:connector-curvature="0"
         id="path3349"
         d="m 145.04734,170.84855 c 4.11771,-0.82565 5.94222,-0.85672 10.31875,0 -0.10711,4.68139 -1.13373,8.91394 -5.2586,11.1125 -3.76854,-2.34856 -5.05258,-5.83198 -5.06015,-11.1125 z"
         style="fill:#e03a3e;fill-opacity:1;fill-rule:evenodd;stroke:#fdb827;stroke-width:0.36500001;stroke-linecap:butt;stroke-linejoin:miter;stroke-miterlimit:4;stroke-dasharray:none;stroke-opacity:1" />
      <path
         sodipodi:nodetypes="ccccccccccccccccccccc"
         inkscape:connector-curvature="0"
         id="path3351"
         d="m 147.02289,169.41111 c 2.23538,-0.42231 4.42862,-0.33412 6.60176,0 l 1.19393,-2.47276 c -0.19964,-0.25409 -0.5124,-0.29668 -0.84278,-0.30636 l -0.39798,0.92999 -0.97153,0 0,-0.99568 c -0.27852,-0.12616 -0.53151,-0.11798 -0.77773,0 l 0,0.99568 -1.07739,0 0,-0.99568 c -0.36356,-0.15712 -0.40499,-0.0858 -0.72523,0 l 0,0.99568 -1.25545,0 0,-0.99568 c -0.34837,-0.14207 -0.60917,-0.10426 -0.86969,0 l 0,0.99568 -0.90127,0 -0.4448,-0.82062 c -0.48768,-0.0305 -0.68087,0.11101 -0.81938,0.28448 z"
         style="fill:#fdb827;fill-opacity:1;fill-rule:evenodd;stroke:#fdb826;stroke-width:0.25607184px;stroke-linecap:butt;stroke-linejoin:miter;stroke-opacity:1" />
      <path
         sodipodi:nodetypes="ccccccccccccc"
         inkscape:connector-curvature="0"
         id="path3353"
         d="m 146.76903,173.06614 0,2.85311 2.67772,-0.85944 -0.83021,3.95809 3.02767,0.0234 -0.88199,-3.98149 2.64846,0.85944 0.0468,-2.85311 -2.69526,0.92962 0.88199,-2.36784 -3.02767,0 0.83021,2.36784 z"
         style="fill:#ffffff;fill-opacity:1;fill-rule:evenodd;stroke:#fdb826;stroke-width:0.26458335px;stroke-linecap:butt;stroke-linejoin:miter;stroke-opacity:1" />
    </g>
  </g>
</svg>
